<svg width="10" height="10" viewBox="0 0 10 10" fill="none" xmlns="http://www.w3.org/2000/svg">
<path d="M4.99213 9.246C4.77613 9.246 4.59013 9.174 4.43413 9.03C4.29013 8.874 4.21813 8.688 4.21813 8.472V5.772H1.53613C1.32013 5.772 1.14013 5.7 0.996125 5.556C0.852125 5.412 0.780125 5.226 0.780125 4.998C0.780125 4.782 0.852125 4.602 0.996125 4.458C1.14013 4.302 1.32013 4.224 1.53613 4.224H4.21813V1.542C4.21813 1.326 4.29013 1.146 4.43413 1.002C4.59013 0.846 4.77613 0.768 4.99213 0.768C5.22013 0.768 5.40613 0.846 5.55013 1.002C5.69413 1.146 5.76613 1.326 5.76613 1.542V4.224H8.44813C8.66413 4.224 8.84413 4.302 8.98813 4.458C9.14413 4.602 9.22213 4.782 9.22213 4.998C9.22213 5.226 9.14413 5.412 8.98813 5.556C8.84413 5.7 8.66413 5.772 8.44813 5.772H5.76613V8.472C5.76613 8.688 5.69413 8.874 5.55013 9.03C5.40613 9.174 5.22013 9.246 4.99213 9.246Z" fill="#232D5C"/>
</svg>
