<svg width="25" height="25" viewBox="0 0 25 25" fill="none" xmlns="http://www.w3.org/2000/svg">
<path d="M22.7115 20.0584L22.7109 20.0599C22.4584 20.6893 22.1462 21.1726 21.6553 21.6602M22.7115 20.0584L3.33362 21.6621C3.82119 22.153 4.3044 22.4651 4.93378 22.7175L4.93605 22.7184C5.85103 23.0803 7.32445 23.2046 8.72565 23.2489C9.75136 23.2813 10.7963 23.2711 11.6341 23.2629C11.9566 23.2598 12.2484 23.2569 12.4966 23.2569C12.7441 23.2569 13.0348 23.2598 13.3561 23.2629C14.1941 23.271 15.2398 23.2812 16.2662 23.2485C17.6667 23.2038 19.1396 23.0787 20.0549 22.715L20.0564 22.7144C20.6868 22.4615 21.166 22.1493 21.6553 21.6602M22.7115 20.0584C23.0751 19.1431 23.2003 17.6701 23.2449 16.2696C23.2776 15.2432 23.2675 14.1975 23.2593 13.3595C23.2562 13.0382 23.2534 12.7475 23.2534 12.5C23.2534 12.2518 23.2562 11.96 23.2594 11.6375C23.2675 10.7997 23.2777 9.75467 23.2453 8.72894C23.2011 7.32772 23.0767 5.85427 22.7149 4.93928L22.714 4.93701M22.7115 20.0584L22.714 4.93701M21.6553 21.6602C21.6551 21.6604 21.6549 21.6606 21.6547 21.6608L21.3024 21.306L21.656 21.6595C21.6557 21.6597 21.6555 21.66 21.6553 21.6602ZM22.714 4.93701C22.4611 4.30648 22.1488 3.82723 21.6597 3.33792L22.714 4.93701ZM19.1729 4.82885L19.1735 4.82885C19.3045 4.82869 19.4343 4.85437 19.5553 4.90443C19.6764 4.95449 19.7864 5.02794 19.879 5.12057L20.2326 4.76702L19.879 5.12058C19.9717 5.21321 20.0451 5.32321 20.0952 5.44428L20.5572 5.25323L20.0952 5.44428C20.1452 5.56535 20.1709 5.69511 20.1708 5.82611V5.82674C20.1708 6.38174 19.7261 6.82463 19.1729 6.82463C18.6204 6.82463 18.175 6.37929 18.175 5.82674C18.175 5.27419 18.6204 4.82885 19.1729 4.82885ZM24.4179 7.36445L24.4179 7.36445L24.4181 7.36835C24.5023 8.86571 24.5007 10.3535 24.4991 11.8674C24.4988 12.0777 24.4986 12.2886 24.4986 12.5C24.4986 12.7369 24.4989 12.9731 24.4993 13.2085C24.5015 14.6968 24.5036 16.1589 24.4181 17.6307L24.4179 17.6355C24.324 19.5743 23.89 21.204 22.5468 22.5472C21.2066 23.8875 19.5737 24.3245 17.6352 24.4183L17.6313 24.4186C16.134 24.5028 14.6462 24.5012 13.1323 24.4995C12.922 24.4993 12.7112 24.4991 12.4998 24.4991C12.2888 24.4991 12.0783 24.4993 11.8684 24.4995C10.3565 24.5012 8.86834 24.5028 7.36816 24.4185L7.36432 24.4184C5.42564 24.3244 3.79598 23.8905 2.45274 22.5472C1.11253 21.207 0.675542 19.574 0.581648 17.6355L0.581663 17.6355L0.581444 17.6317C0.497197 16.1342 0.498822 14.6439 0.500472 13.1315C0.500701 12.9215 0.50093 12.711 0.50093 12.5C0.50093 12.289 0.500701 12.0785 0.500471 11.8685C0.498822 10.3567 0.497199 8.86849 0.581447 7.3683L0.581462 7.3683L0.581648 7.36445C0.675553 5.42573 1.1095 3.79604 2.45274 2.45277C3.79295 1.11254 5.42586 0.675545 7.36432 0.581649L7.36432 0.581665L7.36821 0.581446C8.86555 0.497202 10.3533 0.498822 11.8672 0.500471C12.0775 0.5007 12.2883 0.50093 12.4998 0.50093C12.7108 0.50093 12.9212 0.500701 13.1312 0.500471C14.643 0.498822 16.1312 0.497199 17.6314 0.581448V0.581463L17.6352 0.581649C19.5739 0.675556 21.2036 1.10951 22.5468 2.45277C23.887 3.79301 24.324 5.42595 24.4179 7.36445ZM6.58305 12.5C6.58305 9.22686 9.22358 6.58629 12.4966 6.58629C15.7697 6.58629 18.4102 9.22686 18.4102 12.5C18.4102 15.7731 15.7697 18.4137 12.4966 18.4137C9.22358 18.4137 6.58305 15.7731 6.58305 12.5ZM7.82828 12.5C7.82828 15.0714 9.92523 17.1684 12.4966 17.1684C15.068 17.1684 17.165 15.0714 17.165 12.5C17.165 9.92857 15.068 7.83156 12.4966 7.83156C9.92523 7.83156 7.82828 9.92857 7.82828 12.5Z" fill="#E7F4FB" stroke="#E7F4FB"/>
</svg>
