<svg width="144" height="49" viewBox="0 0 144 49" fill="none" xmlns="http://www.w3.org/2000/svg">
<path d="M33.9039 43.0935C33.8978 43.2858 33.8242 43.4698 33.696 43.6132C33.6294 43.6879 33.5471 43.7469 33.455 43.7862C33.363 43.8255 33.2634 43.8441 33.1634 43.8406C33.0545 43.8364 32.9469 43.8145 32.8451 43.7756C32.734 43.7377 32.6352 43.6703 32.5593 43.5807L25.9205 34.3956L19.2883 43.5807C19.2145 43.666 19.1225 43.7336 19.019 43.7786C18.9156 43.8236 18.8034 43.8447 18.6907 43.8406C18.4946 43.8468 18.3038 43.7769 18.158 43.6457C18.0858 43.5852 18.0262 43.511 17.9827 43.4274C17.9392 43.3438 17.9127 43.2524 17.9047 43.1585C17.8986 42.9448 17.9624 42.7349 18.0866 42.5609L24.7838 33.3043L18.5543 24.6844C18.4404 24.5256 18.3812 24.3341 18.3854 24.1387C18.3884 23.9554 18.463 23.7805 18.5933 23.6515C18.6599 23.5861 18.7392 23.535 18.8264 23.5015C18.9135 23.468 19.0066 23.4527 19.0999 23.4567C19.2276 23.4555 19.3536 23.4856 19.4668 23.5445C19.5801 23.6034 19.6772 23.6893 19.7495 23.7944L25.8946 32.2715L32.0006 23.7944C32.0742 23.6904 32.1715 23.6055 32.2845 23.5468C32.3975 23.488 32.5229 23.4571 32.6502 23.4567C32.7527 23.4487 32.8555 23.4652 32.9504 23.5047C33.0453 23.5442 33.1294 23.6057 33.1959 23.684C33.3192 23.8273 33.3982 24.0033 33.4232 24.1907C33.4388 24.2776 33.4364 24.3668 33.4163 24.4528C33.3962 24.5388 33.3588 24.6198 33.3063 24.6909L27.0313 33.3498L33.7025 42.5609C33.7699 42.6318 33.8224 42.7154 33.857 42.8069C33.8916 42.8984 33.9075 42.9958 33.9039 43.0935Z" fill="#E7F4FB"/>
<path d="M49.734 37.7605C49.3443 37.1636 48.7983 36.6851 48.1555 36.3769C48.0142 36.3059 47.8689 36.243 47.7203 36.1885C47.9796 36.0909 48.2261 35.9623 48.4544 35.8053C48.8435 35.5151 49.1513 35.1296 49.3482 34.6858C49.545 34.2421 49.6242 33.7551 49.5781 33.2719C49.5893 32.5867 49.4093 31.9119 49.0585 31.3232C48.7104 30.7695 48.2188 30.3205 47.6359 30.024C46.9913 29.7016 46.2778 29.541 45.5572 29.5563H39.2433C39.142 29.5516 39.0407 29.5677 38.9458 29.6034C38.8509 29.6391 38.7642 29.6938 38.6911 29.7642C38.5507 29.915 38.4679 30.1105 38.4573 30.3163V43.0546C38.4546 43.1586 38.4731 43.262 38.5117 43.3585C38.5502 43.4551 38.608 43.5428 38.6815 43.6164C38.7551 43.6899 38.8428 43.7477 38.9394 43.7862C39.0359 43.8248 39.1393 43.8433 39.2433 43.8406H45.8235C46.6313 43.857 47.4312 43.6788 48.1555 43.3209C48.8066 42.9918 49.3531 42.488 49.734 41.8659C50.1269 41.2281 50.3276 40.4906 50.3122 39.7417C50.3283 39.0375 50.1264 38.3455 49.734 37.7605ZM40.0228 30.9659H45.5572C45.8816 30.9541 46.2049 31.0085 46.5076 31.1258C46.8102 31.243 47.0858 31.4207 47.3176 31.6479C47.5411 31.8587 47.7183 32.1137 47.8379 32.3966C47.9576 32.6795 48.0171 32.9842 48.0126 33.2914C48.0237 33.6081 47.9675 33.9235 47.8477 34.2169C47.7278 34.5103 47.5472 34.7749 47.3176 34.9933C47.0813 35.212 46.8041 35.3819 46.5021 35.4934C46.2 35.6048 45.8789 35.6556 45.5572 35.6429H40.0228V30.9659ZM47.9347 41.7619C47.3308 42.223 46.5822 42.4534 45.8235 42.4115H40.0228V37.0265H45.8235C46.5815 36.9897 47.3285 37.2196 47.9347 37.6761C48.2185 37.9347 48.4374 38.2564 48.574 38.6152C48.7105 38.974 48.7608 39.3599 48.7207 39.7417C48.754 40.1163 48.7004 40.4934 48.5641 40.8438C48.4278 41.1942 48.2124 41.5084 47.9347 41.7619Z" fill="#E7F4FB"/>
<path d="M67.0648 32.9666C66.4488 31.8821 65.551 30.9844 64.4665 30.3683C63.3193 29.7406 62.0326 29.4116 60.7249 29.4116C59.4172 29.4116 58.1305 29.7406 56.9833 30.3683C55.8984 30.9838 55.0005 31.8817 54.385 32.9666C53.7607 34.1114 53.4336 35.3945 53.4336 36.6985C53.4336 38.0024 53.7607 39.2855 54.385 40.4303C55.0005 41.5152 55.8984 42.4131 56.9833 43.0287C58.1305 43.6564 59.4172 43.9854 60.7249 43.9854C62.0326 43.9854 63.3193 43.6564 64.4665 43.0287C65.551 42.4126 66.4488 41.5148 67.0648 40.4303C67.6891 39.2855 68.0162 38.0024 68.0162 36.6985C68.0162 35.3945 67.6891 34.1114 67.0648 32.9666ZM65.7072 39.6768C65.2212 40.5403 64.5152 41.2598 63.661 41.762C62.7693 42.2664 61.7623 42.5314 60.7379 42.5314C59.7134 42.5314 58.7064 42.2664 57.8148 41.762C56.9553 41.26 56.243 40.5409 55.7491 39.6768C55.2545 38.762 54.9955 37.7384 54.9955 36.6985C54.9955 35.6585 55.2545 34.635 55.7491 33.7202C56.2504 32.8423 56.9773 32.1145 57.8544 31.612C58.7315 31.1094 59.7271 30.8505 60.7379 30.862C61.7481 30.8445 62.7442 31.1011 63.6203 31.6043C64.4964 32.1076 65.2198 32.8387 65.7137 33.7202C66.2 34.6376 66.4542 35.6601 66.4542 36.6985C66.4542 37.7368 66.2 38.7594 65.7137 39.6768H65.7072Z" fill="#E7F4FB"/>
<path d="M74.9962 31.6479C75.8016 31.1321 76.7422 30.8675 77.6984 30.8879C78.5125 30.8711 79.3196 31.0416 80.0573 31.3862C80.7951 31.7309 81.4437 32.2404 81.9532 32.8756C82.0755 33.0356 82.2545 33.1426 82.4534 33.1744C82.6454 33.1856 82.8355 33.1304 82.9916 33.018C83.1477 32.9057 83.2604 32.743 83.3108 32.5573C83.3278 32.4605 83.3226 32.3611 83.2956 32.2666C83.2686 32.1721 83.2205 32.0849 83.1549 32.0117C82.5241 31.1764 81.6991 30.5074 80.7515 30.0629C79.7932 29.6269 78.7512 29.4052 77.6984 29.4133C76.4724 29.3917 75.266 29.7232 74.2232 30.3682C73.2123 31.0039 72.3929 31.9019 71.8522 32.9666C71.2603 34.1212 70.9635 35.4044 70.9882 36.7017C70.9659 37.9962 71.2864 39.2736 71.9171 40.4043C72.5179 41.4785 73.3918 42.3749 74.4505 43.0026C75.5488 43.6588 76.809 43.9941 78.0882 43.9705C79.8395 44.0248 81.5437 43.3985 82.8431 42.2231C82.9158 42.1594 82.9733 42.0803 83.0115 41.9915C83.0497 41.9027 83.0677 41.8065 83.064 41.7099C83.0581 41.6071 83.0308 41.5065 82.9838 41.4148C82.9368 41.3231 82.8712 41.2422 82.7912 41.1773C82.7285 41.1109 82.6513 41.0599 82.5657 41.0284C82.48 40.9968 82.3882 40.9855 82.2975 40.9954C82.1016 41.0152 81.9173 41.0972 81.7713 41.2293C81.2994 41.6789 80.7337 42.0183 80.1149 42.2231C79.4601 42.4337 78.776 42.5389 78.0882 42.5349C77.0726 42.5586 76.0716 42.2903 75.204 41.7619C74.3795 41.2538 73.7066 40.5337 73.2553 39.6768C72.775 38.7642 72.5315 37.7457 72.5472 36.7147C72.5281 35.6754 72.7505 34.6458 73.1968 33.7071C73.5937 32.8669 74.2168 32.1538 74.9962 31.6479Z" fill="#E7F4FB"/>
<path d="M107.95 35.513V43.0547C107.954 43.1569 107.938 43.259 107.902 43.3549C107.866 43.4508 107.812 43.5386 107.742 43.6133C107.667 43.6901 107.577 43.7502 107.477 43.7894C107.378 43.8286 107.271 43.8461 107.164 43.8407C107.059 43.8434 106.955 43.8247 106.858 43.7856C106.76 43.7465 106.672 43.6878 106.599 43.6133C106.527 43.5398 106.471 43.4523 106.434 43.3562C106.397 43.2601 106.38 43.1575 106.384 43.0547V35.513C106.435 34.3241 106.06 33.156 105.325 32.2197C104.998 31.8045 104.579 31.471 104.101 31.2456C103.623 31.0201 103.1 30.9088 102.571 30.9205C102.026 30.9021 101.483 30.9984 100.977 31.2031C100.471 31.4079 100.014 31.7166 99.6351 32.1092C99.2449 32.5407 98.9468 33.0472 98.7591 33.5979C98.5715 34.1485 98.4982 34.7317 98.5438 35.3117C98.5474 35.3723 98.5474 35.433 98.5438 35.4936V43.0547C98.551 43.2599 98.4789 43.4599 98.3425 43.6133C98.2678 43.6901 98.1776 43.7502 98.0779 43.7894C97.9782 43.8286 97.8713 43.8461 97.7643 43.8407C97.6596 43.8434 97.5554 43.8247 97.4582 43.7856C97.361 43.7465 97.2729 43.6878 97.1992 43.6133C97.1249 43.5409 97.0663 43.4539 97.0272 43.3578C96.9881 43.2616 96.9692 43.1584 96.9718 43.0547V35.513C97.022 34.3253 96.6491 33.1583 95.9195 32.2197C95.5912 31.8044 95.1709 31.4709 94.6919 31.2455C94.2129 31.0201 93.6881 30.9088 93.1588 30.9205C92.6121 30.8981 92.0667 30.99 91.5575 31.1902C91.0482 31.3905 90.5863 31.6946 90.2012 32.0834C89.8162 32.4721 89.5164 32.9369 89.321 33.448C89.1256 33.9591 89.0389 34.5053 89.0664 35.0518V43.0547C89.0705 43.1569 89.0542 43.259 89.0185 43.3549C88.9828 43.4508 88.9285 43.5386 88.8586 43.6133C88.7839 43.6901 88.6937 43.7502 88.594 43.7894C88.4943 43.8286 88.3874 43.8461 88.2804 43.8407C88.1757 43.8434 88.0715 43.8247 87.9743 43.7856C87.8771 43.7465 87.789 43.6878 87.7153 43.6133C87.6421 43.5403 87.5848 43.4531 87.5468 43.357C87.5088 43.2609 87.491 43.158 87.4944 43.0547V30.3424C87.4882 30.2359 87.5047 30.1292 87.5428 30.0296C87.5809 29.9299 87.6397 29.8395 87.7153 29.7642C87.7912 29.6941 87.8802 29.6397 87.9772 29.604C88.0741 29.5684 88.1772 29.5522 88.2804 29.5564C88.3859 29.5475 88.492 29.5617 88.5914 29.5981C88.6908 29.6345 88.7811 29.6921 88.8559 29.7669C88.9307 29.8417 88.9884 29.932 89.0247 30.0314C89.0611 30.1308 89.0753 30.2369 89.0664 30.3424V31.3557C89.4545 30.8583 89.93 30.4356 90.4695 30.1085C91.281 29.6211 92.2122 29.3692 93.1588 29.381C94.1474 29.3585 95.1202 29.6322 95.952 30.167C96.7204 30.6717 97.3466 31.365 97.7708 32.1807C98.2206 31.3295 98.8945 30.6175 99.7196 30.1215C100.575 29.6177 101.553 29.3593 102.545 29.3745C103.534 29.3528 104.506 29.6264 105.338 30.1605C106.154 30.6961 106.807 31.444 107.229 32.3236C107.717 33.3153 107.964 34.408 107.95 35.513Z" fill="#E7F4FB"/>
<path d="M139.513 6.74296L123.89 40.7551C122.955 42.9622 121.508 44.915 119.668 46.4519C118.209 47.6761 116.375 48.3639 114.471 48.4007C112.763 48.3607 111.115 47.7604 109.781 46.6923C109.522 46.4974 109.392 46.309 109.392 46.1271C109.415 45.8311 109.55 45.555 109.768 45.3541C109.913 45.1658 110.12 45.0364 110.353 44.9904C110.662 45.0303 110.954 45.1538 111.198 45.3476C111.682 45.689 112.208 45.9663 112.763 46.1726C113.356 46.3581 113.974 46.4459 114.595 46.4324C116.146 46.377 117.622 45.7554 118.746 44.6851C120.195 43.3588 121.346 41.7404 122.124 39.9366L122.721 38.6375C122.768 38.5343 122.789 38.4217 122.783 38.3088C122.777 38.1958 122.745 38.0858 122.689 37.9879L104.656 6.8404C104.488 6.60735 104.412 6.32062 104.442 6.03491C104.5 5.80756 104.773 5.62568 104.994 5.51525C105.676 5.16447 106.02 5.25541 106.378 5.91149L123.013 35.3181C123.072 35.4368 123.166 35.5346 123.282 35.5985C123.398 35.6623 123.531 35.6892 123.663 35.6754C123.793 35.6696 123.918 35.6283 124.026 35.5562C124.133 35.484 124.219 35.3837 124.274 35.2661L137.714 5.96346C138.006 5.31388 138.363 5.17746 139.013 5.47627C139.268 5.56346 139.483 5.74142 139.617 5.97645C139.676 6.2361 139.639 6.50853 139.513 6.74296Z" fill="#E7F4FB"/>
<path d="M135.115 31.6479C135.921 31.1321 136.861 30.8675 137.818 30.8879C138.632 30.8711 139.439 31.0416 140.176 31.3862C140.914 31.7309 141.563 32.2404 142.072 32.8756C142.195 33.0356 142.374 33.1426 142.573 33.1744C142.765 33.1856 142.955 33.1304 143.111 33.018C143.267 32.9057 143.38 32.743 143.43 32.5573C143.447 32.4605 143.442 32.3611 143.415 32.2666C143.388 32.1721 143.34 32.0849 143.274 32.0117C142.642 31.178 141.817 30.5094 140.871 30.0629C139.912 29.6275 138.87 29.4058 137.818 29.4133C136.592 29.3917 135.385 29.7232 134.342 30.3682C133.331 31.0039 132.512 31.9019 131.971 32.9666C131.379 34.1212 131.083 35.4044 131.107 36.7017C131.085 37.9962 131.406 39.2736 132.036 40.4043C132.636 41.4768 133.508 42.3728 134.563 43.0026C135.664 43.658 136.926 43.9932 138.207 43.9705C139.941 44.01 141.623 43.3848 142.91 42.2231C142.983 42.1594 143.04 42.0803 143.079 41.9915C143.117 41.9027 143.135 41.8065 143.131 41.7099C143.125 41.6071 143.098 41.5065 143.051 41.4148C143.004 41.3231 142.938 41.2422 142.858 41.1773C142.795 41.1113 142.718 41.0606 142.633 41.0291C142.547 40.9976 142.455 40.986 142.365 40.9954C142.169 41.0152 141.984 41.0972 141.838 41.2293C141.374 41.6756 140.818 42.0149 140.208 42.2231C139.553 42.4337 138.869 42.5389 138.181 42.5349C137.166 42.5593 136.164 42.291 135.297 41.7619C134.473 41.2538 133.8 40.5337 133.348 39.6768C132.868 38.7642 132.625 37.7457 132.64 36.7147C132.624 35.6757 132.847 34.6468 133.29 33.7071C133.697 32.8655 134.329 32.1528 135.115 31.6479Z" fill="#E7F4FB"/>
<path d="M8.57031 1.43591L8.91459 2.26738L9.25237 1.43591H8.57031Z" fill="#E7F4FB"/>
<path d="M17.8526 17.0714C17.7835 17.0038 17.701 16.9515 17.6103 16.9179C17.5196 16.8843 17.4229 16.8702 17.3265 16.8765H16.3196L9.62242 0.49402C9.57937 0.347865 9.48907 0.220115 9.36564 0.130779C9.24222 0.0414432 9.09265 -0.00443235 8.94036 0.000337705C8.79464 0.00649703 8.6543 0.0571003 8.53818 0.145351C8.42206 0.233601 8.33573 0.355272 8.29078 0.49402L1.54811 16.8895H0.703656C0.606965 16.8806 0.509506 16.8934 0.418449 16.9272C0.327393 16.9609 0.245056 17.0146 0.177494 17.0844C0.053868 17.2257 -0.00913739 17.4101 0.00210716 17.5975V21.495C-0.00520207 21.59 0.00654845 21.6854 0.0366679 21.7758C0.0667874 21.8662 0.114668 21.9496 0.177494 22.0212C0.249081 22.084 0.332506 22.1319 0.422864 22.162C0.513223 22.1921 0.608691 22.2039 0.703656 22.1966C0.891114 22.2078 1.07546 22.1448 1.21683 22.0212C1.2854 21.953 1.3379 21.8704 1.37049 21.7794C1.40308 21.6884 1.41494 21.5912 1.40521 21.495V18.2796H16.6184V21.469C16.6117 21.565 16.625 21.6613 16.6574 21.7519C16.6898 21.8424 16.7407 21.9253 16.8068 21.9952C16.9576 22.1085 17.1411 22.1698 17.3297 22.1698C17.5183 22.1698 17.7018 22.1085 17.8526 21.9952C17.9143 21.9231 17.961 21.8394 17.99 21.7491C18.019 21.6588 18.0297 21.5636 18.0215 21.469V17.5715C18.0318 17.3893 17.9713 17.2101 17.8526 17.0714ZM3.01617 16.8895L8.91438 2.26738L8.5701 1.43591H9.21968L8.8819 2.26738L14.871 16.8895H3.01617Z" fill="#E7F4FB"/>
<path d="M32.2408 8.53589C31.677 7.56034 30.863 6.75303 29.8828 6.19739C28.8742 5.62267 27.7307 5.32673 26.5699 5.33995C25.392 5.32124 24.2304 5.61724 23.2051 6.19739C22.2317 6.75528 21.4245 7.56247 20.8666 8.53589C20.2889 9.55959 19.9952 10.719 20.0156 11.8942C19.9971 13.0631 20.2908 14.2157 20.8666 15.2331C21.4245 16.2065 22.2317 17.0137 23.2051 17.5716C24.2309 18.1498 25.3926 18.4435 26.5699 18.4225C27.7302 18.4377 28.8735 18.144 29.8828 17.5716C30.8511 17.0114 31.6535 16.2045 32.2083 15.2331C32.786 14.2162 33.082 13.0636 33.0658 11.8942C33.0938 10.7214 32.8091 9.56223 32.2408 8.53589ZM31.0261 14.551C30.3318 15.7343 29.1978 16.5951 27.8714 16.9456C26.545 17.296 25.1338 17.1078 23.9456 16.4218C23.1736 15.9711 22.5331 15.3261 22.0878 14.551C21.6417 13.7378 21.4177 12.8215 21.4382 11.8942C21.4152 10.9605 21.6393 10.0372 22.0878 9.21795C22.7896 8.0339 23.9289 7.17334 25.2597 6.8221C26.5905 6.47086 28.0061 6.65712 29.2007 7.34066C29.9647 7.79373 30.5946 8.44158 31.0261 9.21795C31.4701 10.0319 31.6941 10.9477 31.6757 11.8747C31.6951 12.8081 31.4712 13.7304 31.0261 14.551Z" fill="#E7F4FB"/>
<path d="M46.4604 17.63C46.4592 17.7179 46.4402 17.8048 46.4045 17.8852C46.3688 17.9656 46.3171 18.0379 46.2526 18.0977C46.1254 18.222 45.9561 18.2938 45.7784 18.299C45.6883 18.3032 45.5986 18.2853 45.517 18.2468C45.4355 18.2083 45.3647 18.1504 45.3107 18.0782L40.4128 12.6022H38.0094V17.591C38.0143 17.7759 37.9467 17.9555 37.821 18.0912C37.683 18.2185 37.5021 18.2893 37.3143 18.2893C37.1265 18.2893 36.9456 18.2185 36.8076 18.0912C36.7402 18.0271 36.6873 17.9493 36.6526 17.863C36.6179 17.7767 36.602 17.6839 36.6063 17.591V6.19082C36.5992 6.09469 36.6135 5.99818 36.6484 5.9083C36.6832 5.81841 36.7376 5.73741 36.8076 5.67116C36.9494 5.55162 37.1289 5.48605 37.3143 5.48605C37.4997 5.48605 37.6792 5.55162 37.821 5.67116C37.9497 5.81285 38.0174 5.99956 38.0094 6.19082V11.3355H40.3154L45.1483 5.69714C45.2538 5.57795 45.3994 5.50167 45.5575 5.48278C45.6363 5.47918 45.7149 5.49174 45.7886 5.51966C45.8624 5.54759 45.9296 5.5903 45.9862 5.64517C46.0581 5.69586 46.1168 5.76298 46.1575 5.84094C46.1981 5.91891 46.2196 6.00545 46.2201 6.09339C46.2174 6.27386 46.1533 6.44802 46.0382 6.58707L41.5756 11.8487L46.298 17.1558C46.4076 17.289 46.4653 17.4575 46.4604 17.63Z" fill="#E7F4FB"/>
<path d="M68.1176 10.8159V17.5846C68.125 17.7687 68.0597 17.9484 67.9357 18.0848C67.8702 18.1539 67.7902 18.2078 67.7015 18.2426C67.6129 18.2774 67.5176 18.2922 67.4225 18.2861C67.3285 18.2913 67.2345 18.2759 67.147 18.2412C67.0596 18.2064 66.9807 18.153 66.9159 18.0848C66.8504 18.0192 66.7988 17.9411 66.7642 17.8552C66.7296 17.7692 66.7127 17.6772 66.7145 17.5846V10.8159C66.7603 9.75427 66.4264 8.71101 65.7726 7.87332C65.4775 7.50283 65.1003 7.20608 64.6707 7.00653C64.2412 6.80697 63.7711 6.7101 63.2977 6.72356C62.8143 6.71019 62.3334 6.79805 61.8859 6.98151C61.4384 7.16498 61.0343 7.43998 60.6994 7.78887C60.3494 8.17418 60.0824 8.62726 59.9147 9.12004C59.7471 9.61281 59.6826 10.1348 59.725 10.6535V17.5846C59.7324 17.7687 59.6671 17.9484 59.5431 18.0848C59.4769 18.1548 59.3958 18.2092 59.306 18.244C59.2161 18.2788 59.1196 18.2932 59.0234 18.2861C58.9305 18.2903 58.8378 18.2745 58.7515 18.2398C58.6652 18.205 58.5873 18.1522 58.5233 18.0848C58.4578 18.0192 58.4062 17.9411 58.3716 17.8552C58.337 17.7692 58.3201 17.6772 58.3219 17.5846V10.8159C58.3659 9.75346 58.0296 8.71012 57.3735 7.87332C57.0781 7.50321 56.7008 7.20673 56.2713 7.00722C55.8419 6.8077 55.372 6.7106 54.8986 6.72356C54.4106 6.70518 53.9241 6.78739 53.4693 6.96507C53.0145 7.14275 52.6011 7.41211 52.2548 7.75639C51.9091 8.10154 51.6371 8.51322 51.4551 8.96652C51.2731 9.41983 51.1849 9.90534 51.196 10.3937V17.5391C51.2034 17.7232 51.1381 17.9029 51.0141 18.0393C50.8761 18.1666 50.6952 18.2374 50.5074 18.2374C50.3196 18.2374 50.1387 18.1666 50.0007 18.0393C49.9321 17.9758 49.8781 17.8982 49.8422 17.8119C49.8063 17.7256 49.7895 17.6325 49.7929 17.5391V6.1909C49.7866 6.09426 49.802 5.99744 49.838 5.90753C49.8739 5.81762 49.9295 5.73688 50.0007 5.67123C50.1425 5.55169 50.322 5.48613 50.5074 5.48613C50.6928 5.48613 50.8723 5.55169 51.0141 5.67123C51.1411 5.81358 51.2065 6.00044 51.196 6.1909V7.10031C51.5552 6.64799 51.9958 6.26684 52.4951 5.97654C53.2221 5.53946 54.0569 5.31445 54.9051 5.32695C55.7927 5.3079 56.6659 5.55446 57.4125 6.035C58.1 6.48548 58.6576 7.10806 59.0299 7.84084C59.4459 7.06661 60.0675 6.42222 60.8262 5.97866C61.585 5.5351 62.4514 5.30958 63.3302 5.32695C64.2178 5.3079 65.091 5.55446 65.8376 6.035C66.5688 6.51898 67.1548 7.19255 67.533 7.98375C67.9432 8.87023 68.1433 9.83945 68.1176 10.8159Z" fill="#E7F4FB"/>
<path d="M83.2201 8.53586C82.663 7.56404 81.8584 6.75716 80.8881 6.19737C79.8604 5.63506 78.7078 5.34033 77.5363 5.34033C76.3648 5.34033 75.2121 5.63506 74.1844 6.19737C73.2077 6.75307 72.3979 7.56063 71.8394 8.53586C71.265 9.56084 70.9715 10.7194 70.9885 11.8942C70.973 13.0627 71.2666 14.2145 71.8394 15.2331C72.3979 16.2083 73.2077 17.0159 74.1844 17.5716C75.2134 18.1299 76.3656 18.4223 77.5363 18.4223C78.707 18.4223 79.8591 18.1299 80.8881 17.5716C81.8584 17.0118 82.663 16.2049 83.2201 15.2331C83.793 14.2145 84.0865 13.0627 84.0711 11.8942C84.0881 10.7194 83.7946 9.56084 83.2201 8.53586ZM81.9989 14.551C81.5575 15.3416 80.91 15.9976 80.1253 16.4495C79.3406 16.9013 78.4481 17.1319 77.5428 17.1168C76.6364 17.128 75.7437 16.8958 74.9576 16.4445C74.1716 15.9932 73.521 15.3393 73.0737 14.551C72.6238 13.7393 72.3995 12.8219 72.4241 11.8942C72.3982 10.9602 72.6225 10.0362 73.0737 9.21792C73.5105 8.43907 74.1474 7.79098 74.9185 7.34063C75.7207 6.88934 76.6256 6.65227 77.546 6.65227C78.4665 6.65227 79.3714 6.88934 80.1736 7.34063C80.9389 7.79196 81.5692 8.44023 81.9989 9.21792C82.4459 10.0308 82.67 10.9473 82.6485 11.8747C82.6709 12.8084 82.4469 13.7315 81.9989 14.551Z" fill="#E7F4FB"/>
<path d="M99.8104 8.53589C99.2525 7.56247 98.4453 6.75528 97.4719 6.19739C96.4511 5.63906 95.3063 5.34644 94.1428 5.34644C92.9793 5.34644 91.8345 5.63906 90.8137 6.19739C89.8532 6.72985 89.0492 7.5048 88.4817 8.44495C87.9001 9.44581 87.5889 10.5808 87.5787 11.7383V23.0605C87.5769 23.1532 87.5938 23.2452 87.6284 23.3312C87.663 23.4171 87.7146 23.4952 87.7801 23.5607C87.9185 23.69 88.1007 23.7618 88.29 23.7618C88.4793 23.7618 88.6616 23.69 88.8 23.5607C88.9263 23.4254 88.994 23.2456 88.9883 23.0605V15.7592C89.4978 16.585 90.2203 17.2582 91.08 17.708C92.0151 18.1979 93.058 18.4458 94.1135 18.429C95.2784 18.4414 96.4258 18.1456 97.4394 17.5716C98.4128 17.0137 99.22 16.2065 99.7779 15.2331C100.374 14.2214 100.688 13.0685 100.687 11.8942C100.7 10.7166 100.397 9.55716 99.8104 8.53589ZM98.5827 14.551C98.1423 15.3233 97.5088 15.968 96.7443 16.4218C96.157 16.7715 95.5058 17.0006 94.8289 17.0957C94.152 17.1909 93.4629 17.1502 92.8019 16.976C92.1409 16.8018 91.5212 16.4977 90.9791 16.0813C90.4369 15.665 89.9832 15.1447 89.6444 14.551C89.2009 13.7368 88.977 12.8212 88.9948 11.8942C88.9745 10.9608 89.1984 10.0382 89.6444 9.21795C90.0789 8.43954 90.7136 7.79142 91.4827 7.34066C92.0698 6.99052 92.7208 6.76119 93.3977 6.66612C94.0746 6.57104 94.7636 6.61215 95.4244 6.78703C96.0852 6.9619 96.7043 7.26702 97.2456 7.68446C97.7868 8.10191 98.2392 8.62327 98.5762 9.21795C99.0276 10.0361 99.2519 10.9602 99.2258 11.8942C99.2523 12.8213 99.0303 13.7387 98.5827 14.551Z" fill="#E7F4FB"/>
</svg>
