<svg width="26" height="25" viewBox="0 0 26 25" fill="none" xmlns="http://www.w3.org/2000/svg">
<path d="M23.92 23.5H24.42V23V2V1.5H23.92H2.08H1.58V2V23V23.5H2.08H13.884H14.384V23V15.3156V14.8156H13.884H10.9942V12.0437H13.8807H14.3807V11.5437V8.7625C14.3807 7.25766 14.8557 6.152 15.6252 5.42061C16.3986 4.68547 17.5259 4.275 18.928 4.275C19.9728 4.275 20.9043 4.33041 21.457 4.37706V6.8H19.8802C19.0049 6.8 18.3425 6.99839 17.9216 7.47933C17.5129 7.94638 17.4368 8.56671 17.4368 9.1375V11.5469V12.0469H17.9368H21.252L20.8795 14.8188H17.9368H17.4368V15.3188V23V23.5H17.9368H23.92ZM1.04 0.5H24.96C25.2778 0.5 25.5 0.741319 25.5 1V24C25.5 24.2587 25.2778 24.5 24.96 24.5H1.04C0.722228 24.5 0.5 24.2587 0.5 24V1C0.5 0.741319 0.722228 0.5 1.04 0.5Z" fill="#E7F4FB" stroke="#E7F4FB"/>
</svg>
