<svg width="144" height="49" viewBox="0 0 144 49" fill="none" xmlns="http://www.w3.org/2000/svg">
<path d="M33.9039 43.0936C33.8978 43.2858 33.8242 43.4698 33.696 43.6133C33.6294 43.6879 33.5471 43.747 33.455 43.7863C33.363 43.8256 33.2634 43.8441 33.1634 43.8406C33.0545 43.8364 32.9469 43.8145 32.8451 43.7756C32.734 43.7377 32.6352 43.6704 32.5593 43.5808L25.9205 34.3957L19.2883 43.5808C19.2145 43.666 19.1225 43.7337 19.019 43.7786C18.9156 43.8236 18.8034 43.8448 18.6907 43.8406C18.4946 43.8468 18.3038 43.777 18.158 43.6457C18.0858 43.5852 18.0262 43.5111 17.9827 43.4274C17.9392 43.3438 17.9127 43.2524 17.9047 43.1585C17.8986 42.9448 17.9624 42.735 18.0866 42.5609L24.7838 33.3044L18.5543 24.6844C18.4404 24.5256 18.3812 24.3341 18.3854 24.1388C18.3884 23.9555 18.463 23.7806 18.5933 23.6516C18.6599 23.5862 18.7392 23.5351 18.8264 23.5016C18.9135 23.468 19.0066 23.4528 19.0999 23.4567C19.2276 23.4555 19.3536 23.4857 19.4668 23.5446C19.5801 23.6035 19.6772 23.6893 19.7495 23.7945L25.8946 32.2715L32.0006 23.7945C32.0742 23.6905 32.1715 23.6056 32.2845 23.5468C32.3975 23.4881 32.5229 23.4572 32.6502 23.4567C32.7527 23.4487 32.8555 23.4652 32.9504 23.5047C33.0453 23.5442 33.1294 23.6057 33.1959 23.6841C33.3192 23.8273 33.3982 24.0034 33.4232 24.1907C33.4388 24.2777 33.4364 24.3669 33.4163 24.4529C33.3962 24.5389 33.3588 24.6199 33.3063 24.6909L27.0313 33.3498L33.7025 42.5609C33.7699 42.6318 33.8224 42.7155 33.857 42.8069C33.8916 42.8984 33.9075 42.9959 33.9039 43.0936Z" fill="#232D5C"/>
<path d="M49.734 37.7606C49.3443 37.1637 48.7983 36.6851 48.1555 36.377C48.0142 36.3059 47.8689 36.243 47.7203 36.1886C47.9796 36.091 48.2261 35.9623 48.4544 35.8053C48.8435 35.5151 49.1513 35.1296 49.3482 34.6859C49.545 34.2421 49.6242 33.7552 49.5781 33.272C49.5893 32.5867 49.4093 31.9119 49.0585 31.3232C48.7104 30.7695 48.2188 30.3206 47.6359 30.024C46.9913 29.7016 46.2778 29.5411 45.5572 29.5563H39.2433C39.142 29.5517 39.0407 29.5677 38.9458 29.6035C38.8509 29.6392 38.7642 29.6939 38.6911 29.7642C38.5507 29.9151 38.4679 30.1105 38.4573 30.3163V43.0547C38.4546 43.1586 38.4731 43.262 38.5117 43.3586C38.5502 43.4552 38.608 43.5429 38.6815 43.6164C38.7551 43.6899 38.8428 43.7477 38.9394 43.7863C39.0359 43.8248 39.1393 43.8433 39.2433 43.8407H45.8235C46.6313 43.8571 47.4312 43.6788 48.1555 43.321C48.8066 42.9919 49.3531 42.488 49.734 41.8659C50.1269 41.2281 50.3276 40.4907 50.3122 39.7418C50.3283 39.0376 50.1264 38.3456 49.734 37.7606ZM40.0228 30.9659H45.5572C45.8816 30.9542 46.2049 31.0086 46.5076 31.1258C46.8102 31.2431 47.0858 31.4208 47.3176 31.648C47.5411 31.8588 47.7183 32.1137 47.8379 32.3966C47.9576 32.6796 48.0171 32.9843 48.0126 33.2914C48.0237 33.6081 47.9675 33.9236 47.8477 34.2169C47.7278 34.5103 47.5472 34.7749 47.3176 34.9933C47.0813 35.212 46.8041 35.382 46.5021 35.4934C46.2 35.6049 45.8789 35.6557 45.5572 35.6429H40.0228V30.9659ZM47.9347 41.762C47.3308 42.2231 46.5822 42.4534 45.8235 42.4116H40.0228V37.0265H45.8235C46.5815 36.9898 47.3285 37.2196 47.9347 37.6761C48.2185 37.9347 48.4374 38.2564 48.574 38.6152C48.7105 38.9741 48.7608 39.36 48.7207 39.7418C48.754 40.1163 48.7004 40.4935 48.5641 40.8439C48.4278 41.1943 48.2124 41.5085 47.9347 41.762Z" fill="#232D5C"/>
<path d="M67.0648 32.9666C66.4488 31.8821 65.551 30.9843 64.4665 30.3683C63.3193 29.7406 62.0326 29.4116 60.7249 29.4116C59.4172 29.4116 58.1305 29.7406 56.9833 30.3683C55.8984 30.9838 55.0005 31.8817 54.385 32.9666C53.7607 34.1114 53.4336 35.3945 53.4336 36.6984C53.4336 38.0024 53.7607 39.2855 54.385 40.4303C55.0005 41.5152 55.8984 42.4131 56.9833 43.0286C58.1305 43.6563 59.4172 43.9853 60.7249 43.9853C62.0326 43.9853 63.3193 43.6563 64.4665 43.0286C65.551 42.4126 66.4488 41.5148 67.0648 40.4303C67.6891 39.2855 68.0162 38.0024 68.0162 36.6984C68.0162 35.3945 67.6891 34.1114 67.0648 32.9666ZM65.7072 39.6768C65.2212 40.5403 64.5152 41.2597 63.661 41.7619C62.7693 42.2663 61.7623 42.5314 60.7379 42.5314C59.7134 42.5314 58.7064 42.2663 57.8148 41.7619C56.9553 41.26 56.243 40.5409 55.7491 39.6768C55.2545 38.762 54.9955 37.7384 54.9955 36.6984C54.9955 35.6585 55.2545 34.6349 55.7491 33.7201C56.2504 32.8423 56.9773 32.1144 57.8544 31.6119C58.7315 31.1094 59.7271 30.8505 60.7379 30.8619C61.7481 30.8445 62.7442 31.101 63.6203 31.6043C64.4964 32.1075 65.2198 32.8387 65.7137 33.7201C66.2 34.6375 66.4542 35.6601 66.4542 36.6984C66.4542 37.7368 66.2 38.7593 65.7137 39.6768H65.7072Z" fill="#232D5C"/>
<path d="M74.9962 31.648C75.8016 31.1321 76.7422 30.8676 77.6984 30.888C78.5125 30.8711 79.3196 31.0416 80.0573 31.3863C80.7951 31.7309 81.4437 32.2405 81.9532 32.8757C82.0755 33.0357 82.2545 33.1426 82.4534 33.1745C82.6454 33.1857 82.8355 33.1305 82.9916 33.0181C83.1477 32.9057 83.2604 32.743 83.3108 32.5574C83.3278 32.4606 83.3226 32.3612 83.2956 32.2666C83.2686 32.1721 83.2205 32.085 83.1549 32.0117C82.5241 31.1764 81.6991 30.5075 80.7515 30.063C79.7932 29.6269 78.7512 29.4053 77.6984 29.4134C76.4724 29.3918 75.266 29.7232 74.2232 30.3683C73.2123 31.004 72.3929 31.902 71.8522 32.9666C71.2603 34.1213 70.9635 35.4045 70.9882 36.7017C70.9659 37.9963 71.2864 39.2737 71.9171 40.4043C72.5179 41.4786 73.3918 42.375 74.4505 43.0027C75.5488 43.6588 76.809 43.9941 78.0882 43.9706C79.8395 44.0249 81.5437 43.3986 82.8431 42.2232C82.9158 42.1595 82.9733 42.0803 83.0115 41.9915C83.0497 41.9028 83.0677 41.8066 83.064 41.71C83.0581 41.6071 83.0308 41.5066 82.9838 41.4149C82.9368 41.3232 82.8712 41.2423 82.7912 41.1773C82.7285 41.111 82.6513 41.06 82.5657 41.0285C82.48 40.9969 82.3882 40.9856 82.2975 40.9955C82.1016 41.0153 81.9173 41.0972 81.7713 41.2293C81.2994 41.6789 80.7337 42.0184 80.1149 42.2232C79.4601 42.4338 78.776 42.539 78.0882 42.535C77.0726 42.5586 76.0716 42.2904 75.204 41.762C74.3795 41.2538 73.7066 40.5337 73.2553 39.6768C72.775 38.7643 72.5315 37.7458 72.5472 36.7147C72.5281 35.6754 72.7505 34.6459 73.1968 33.7071C73.5937 32.8669 74.2168 32.1539 74.9962 31.648Z" fill="#232D5C"/>
<path d="M107.95 35.513V43.0547C107.954 43.1569 107.938 43.259 107.902 43.3549C107.866 43.4508 107.812 43.5386 107.742 43.6133C107.667 43.6901 107.577 43.7502 107.477 43.7894C107.378 43.8286 107.271 43.8461 107.164 43.8407C107.059 43.8434 106.955 43.8247 106.858 43.7856C106.76 43.7465 106.672 43.6878 106.599 43.6133C106.527 43.5398 106.471 43.4523 106.434 43.3562C106.397 43.2601 106.38 43.1575 106.384 43.0547V35.513C106.435 34.3241 106.06 33.156 105.325 32.2197C104.998 31.8045 104.579 31.471 104.101 31.2456C103.623 31.0201 103.1 30.9088 102.571 30.9205C102.026 30.9021 101.483 30.9984 100.977 31.2031C100.471 31.4079 100.014 31.7166 99.6351 32.1092C99.2449 32.5407 98.9468 33.0472 98.7591 33.5979C98.5715 34.1485 98.4982 34.7317 98.5438 35.3117C98.5474 35.3723 98.5474 35.433 98.5438 35.4936V43.0547C98.551 43.2599 98.4789 43.4599 98.3425 43.6133C98.2678 43.6901 98.1776 43.7502 98.0779 43.7894C97.9782 43.8286 97.8713 43.8461 97.7643 43.8407C97.6596 43.8434 97.5554 43.8247 97.4582 43.7856C97.361 43.7465 97.2729 43.6878 97.1992 43.6133C97.1249 43.5409 97.0663 43.4539 97.0272 43.3578C96.9881 43.2616 96.9692 43.1584 96.9718 43.0547V35.513C97.022 34.3253 96.6491 33.1583 95.9195 32.2197C95.5912 31.8044 95.1709 31.4709 94.6919 31.2455C94.2129 31.0201 93.6881 30.9088 93.1588 30.9205C92.6121 30.8981 92.0667 30.99 91.5575 31.1902C91.0482 31.3905 90.5863 31.6946 90.2012 32.0834C89.8162 32.4721 89.5164 32.9369 89.321 33.448C89.1256 33.9591 89.0389 34.5053 89.0664 35.0518V43.0547C89.0705 43.1569 89.0542 43.259 89.0185 43.3549C88.9828 43.4508 88.9285 43.5386 88.8586 43.6133C88.7839 43.6901 88.6937 43.7502 88.594 43.7894C88.4943 43.8286 88.3874 43.8461 88.2804 43.8407C88.1757 43.8434 88.0715 43.8247 87.9743 43.7856C87.8771 43.7465 87.789 43.6878 87.7153 43.6133C87.6421 43.5403 87.5848 43.4531 87.5468 43.357C87.5088 43.2609 87.491 43.158 87.4944 43.0547V30.3424C87.4882 30.2359 87.5047 30.1292 87.5428 30.0296C87.5809 29.9299 87.6397 29.8395 87.7153 29.7642C87.7912 29.6941 87.8802 29.6397 87.9772 29.604C88.0741 29.5684 88.1772 29.5522 88.2804 29.5564C88.3859 29.5475 88.492 29.5617 88.5914 29.5981C88.6908 29.6345 88.7811 29.6921 88.8559 29.7669C88.9307 29.8417 88.9884 29.932 89.0247 30.0314C89.0611 30.1308 89.0753 30.2369 89.0664 30.3424V31.3557C89.4545 30.8583 89.93 30.4356 90.4695 30.1085C91.281 29.6211 92.2122 29.3692 93.1588 29.381C94.1474 29.3585 95.1202 29.6322 95.952 30.167C96.7204 30.6717 97.3466 31.365 97.7708 32.1807C98.2206 31.3295 98.8945 30.6175 99.7196 30.1215C100.575 29.6177 101.553 29.3593 102.545 29.3745C103.534 29.3528 104.506 29.6264 105.338 30.1605C106.154 30.6961 106.807 31.444 107.229 32.3236C107.717 33.3153 107.964 34.408 107.95 35.513Z" fill="#232D5C"/>
<path d="M139.513 6.74299L123.89 40.7551C122.955 42.9622 121.508 44.915 119.668 46.452C118.209 47.6762 116.375 48.3639 114.471 48.4007C112.763 48.3607 111.115 47.7604 109.781 46.6923C109.522 46.4974 109.392 46.3091 109.392 46.1272C109.415 45.8312 109.55 45.555 109.768 45.3542C109.913 45.1658 110.12 45.0365 110.353 44.9904C110.662 45.0303 110.954 45.1539 111.198 45.3477C111.682 45.689 112.208 45.9663 112.763 46.1726C113.356 46.3581 113.974 46.4459 114.595 46.4325C116.146 46.377 117.622 45.7554 118.746 44.6851C120.195 43.3588 121.346 41.7404 122.124 39.9366L122.721 38.6375C122.768 38.5344 122.789 38.4217 122.783 38.3088C122.777 38.1959 122.745 38.0859 122.689 37.9879L104.656 6.84043C104.488 6.60738 104.412 6.32065 104.442 6.03494C104.5 5.80759 104.773 5.62571 104.994 5.51528C105.676 5.1645 106.02 5.25545 106.378 5.91152L123.013 35.3181C123.072 35.4368 123.166 35.5347 123.282 35.5985C123.398 35.6624 123.531 35.6892 123.663 35.6754C123.793 35.6696 123.918 35.6284 124.026 35.5562C124.133 35.4841 124.219 35.3837 124.274 35.2661L137.714 5.96349C138.006 5.31391 138.363 5.1775 139.013 5.4763C139.268 5.56349 139.483 5.74145 139.617 5.97648C139.676 6.23613 139.639 6.50856 139.513 6.74299Z" fill="#232D5C"/>
<path d="M135.115 31.648C135.921 31.1321 136.861 30.8676 137.818 30.888C138.632 30.8711 139.439 31.0416 140.176 31.3863C140.914 31.7309 141.563 32.2405 142.072 32.8757C142.195 33.0357 142.374 33.1426 142.573 33.1745C142.765 33.1857 142.955 33.1305 143.111 33.0181C143.267 32.9057 143.38 32.743 143.43 32.5574C143.447 32.4606 143.442 32.3612 143.415 32.2666C143.388 32.1721 143.34 32.085 143.274 32.0117C142.642 31.178 141.817 30.5095 140.871 30.063C139.912 29.6275 138.87 29.4059 137.818 29.4134C136.592 29.3918 135.385 29.7232 134.342 30.3683C133.331 31.004 132.512 31.902 131.971 32.9666C131.379 34.1213 131.083 35.4045 131.107 36.7017C131.085 37.9963 131.406 39.2737 132.036 40.4043C132.636 41.4768 133.508 42.3728 134.563 43.0027C135.664 43.6581 136.926 43.9933 138.207 43.9706C139.941 44.0101 141.623 43.3848 142.91 42.2232C142.983 42.1595 143.04 42.0803 143.079 41.9915C143.117 41.9028 143.135 41.8066 143.131 41.71C143.125 41.6071 143.098 41.5066 143.051 41.4149C143.004 41.3232 142.938 41.2423 142.858 41.1773C142.795 41.1114 142.718 41.0607 142.633 41.0292C142.547 40.9976 142.455 40.9861 142.365 40.9955C142.169 41.0153 141.984 41.0972 141.838 41.2293C141.374 41.6757 140.818 42.0149 140.208 42.2232C139.553 42.4338 138.869 42.539 138.181 42.535C137.166 42.5594 136.164 42.291 135.297 41.762C134.473 41.2538 133.8 40.5337 133.348 39.6768C132.868 38.7643 132.625 37.7458 132.64 36.7147C132.624 35.6757 132.847 34.6469 133.29 33.7072C133.697 32.8655 134.329 32.1528 135.115 31.648Z" fill="#232D5C"/>
<path d="M8.57031 1.43591L8.91459 2.26738L9.25237 1.43591H8.57031Z" fill="#232D5C"/>
<path d="M17.8526 17.0714C17.7835 17.0038 17.701 16.9515 17.6103 16.9179C17.5196 16.8843 17.4229 16.8702 17.3265 16.8765H16.3196L9.62242 0.49402C9.57937 0.347865 9.48907 0.220115 9.36564 0.130779C9.24222 0.0414432 9.09265 -0.00443235 8.94036 0.000337705C8.79464 0.00649703 8.6543 0.0571003 8.53818 0.145351C8.42206 0.233601 8.33573 0.355272 8.29078 0.49402L1.54811 16.8895H0.703656C0.606965 16.8806 0.509506 16.8934 0.418449 16.9272C0.327393 16.9609 0.245056 17.0146 0.177494 17.0844C0.053868 17.2257 -0.00913739 17.4101 0.00210716 17.5975V21.495C-0.00520207 21.59 0.00654845 21.6854 0.0366679 21.7758C0.0667874 21.8662 0.114668 21.9496 0.177494 22.0212C0.249081 22.084 0.332506 22.1319 0.422864 22.162C0.513223 22.1921 0.608691 22.2039 0.703656 22.1966C0.891114 22.2078 1.07546 22.1448 1.21683 22.0212C1.2854 21.953 1.3379 21.8704 1.37049 21.7794C1.40308 21.6884 1.41494 21.5912 1.40521 21.495V18.2796H16.6184V21.469C16.6117 21.565 16.625 21.6613 16.6574 21.7519C16.6898 21.8424 16.7407 21.9253 16.8068 21.9952C16.9576 22.1085 17.1411 22.1698 17.3297 22.1698C17.5183 22.1698 17.7018 22.1085 17.8526 21.9952C17.9143 21.9231 17.961 21.8394 17.99 21.7491C18.019 21.6588 18.0297 21.5636 18.0215 21.469V17.5715C18.0318 17.3893 17.9713 17.2101 17.8526 17.0714ZM3.01617 16.8895L8.91438 2.26738L8.5701 1.43591H9.21968L8.8819 2.26738L14.871 16.8895H3.01617Z" fill="#232D5C"/>
<path d="M32.2408 8.53586C31.677 7.56031 30.863 6.753 29.8828 6.19736C28.8742 5.62264 27.7307 5.3267 26.5699 5.33992C25.392 5.32121 24.2304 5.61721 23.2051 6.19736C22.2317 6.75525 21.4245 7.56244 20.8666 8.53586C20.2889 9.55956 19.9952 10.7189 20.0156 11.8942C19.9971 13.0631 20.2908 14.2157 20.8666 15.2331C21.4245 16.2065 22.2317 17.0137 23.2051 17.5715C24.2309 18.1497 25.3926 18.4435 26.5699 18.4225C27.7302 18.4377 28.8735 18.144 29.8828 17.5715C30.8511 17.0113 31.6535 16.2044 32.2083 15.2331C32.786 14.2162 33.082 13.0636 33.0658 11.8942C33.0938 10.7214 32.8091 9.5622 32.2408 8.53586ZM31.0261 14.551C30.3318 15.7343 29.1978 16.5951 27.8714 16.9455C26.545 17.296 25.1338 17.1077 23.9456 16.4218C23.1736 15.9711 22.5331 15.3261 22.0878 14.551C21.6417 13.7378 21.4177 12.8215 21.4382 11.8942C21.4152 10.9605 21.6393 10.0372 22.0878 9.21792C22.7896 8.03387 23.9289 7.17331 25.2597 6.82207C26.5905 6.47083 28.0061 6.65709 29.2007 7.34063C29.9647 7.7937 30.5946 8.44155 31.0261 9.21792C31.4701 10.0319 31.6941 10.9477 31.6757 11.8747C31.6951 12.8081 31.4712 13.7304 31.0261 14.551Z" fill="#232D5C"/>
<path d="M46.4604 17.63C46.4592 17.718 46.4402 17.8048 46.4045 17.8852C46.3688 17.9656 46.3171 18.0379 46.2526 18.0977C46.1254 18.222 45.9561 18.2939 45.7784 18.2991C45.6883 18.3032 45.5986 18.2853 45.517 18.2468C45.4355 18.2083 45.3647 18.1504 45.3107 18.0782L40.4128 12.6022H38.0094V17.591C38.0143 17.776 37.9467 17.9555 37.821 18.0912C37.683 18.2186 37.5021 18.2893 37.3143 18.2893C37.1265 18.2893 36.9456 18.2186 36.8076 18.0912C36.7402 18.0271 36.6873 17.9493 36.6526 17.863C36.6179 17.7767 36.602 17.684 36.6063 17.591V6.19085C36.5992 6.09472 36.6135 5.99821 36.6484 5.90833C36.6832 5.81845 36.7376 5.73744 36.8076 5.67119C36.9494 5.55165 37.1289 5.48608 37.3143 5.48608C37.4997 5.48608 37.6792 5.55165 37.821 5.67119C37.9497 5.81288 38.0174 5.9996 38.0094 6.19085V11.3355H40.3154L45.1483 5.69717C45.2538 5.57799 45.3994 5.5017 45.5575 5.48281C45.6363 5.47921 45.7149 5.49177 45.7886 5.51969C45.8624 5.54762 45.9296 5.59033 45.9862 5.64521C46.0581 5.6959 46.1168 5.76301 46.1575 5.84098C46.1981 5.91894 46.2196 6.00548 46.2201 6.09342C46.2174 6.27389 46.1533 6.44805 46.0382 6.5871L41.5756 11.8487L46.298 17.1558C46.4076 17.2891 46.4653 17.4575 46.4604 17.63Z" fill="#232D5C"/>
<path d="M68.1176 10.8159V17.5845C68.125 17.7687 68.0597 17.9484 67.9357 18.0847C67.8702 18.1539 67.7902 18.2077 67.7015 18.2425C67.6129 18.2773 67.5176 18.2922 67.4225 18.2861C67.3285 18.2912 67.2345 18.2759 67.147 18.2411C67.0596 18.2064 66.9807 18.153 66.9159 18.0847C66.8504 18.0192 66.7988 17.9411 66.7642 17.8552C66.7296 17.7692 66.7127 17.6772 66.7145 17.5845V10.8159C66.7603 9.75424 66.4264 8.71098 65.7726 7.87329C65.4775 7.5028 65.1003 7.20605 64.6707 7.0065C64.2412 6.80694 63.7711 6.71007 63.2977 6.72353C62.8143 6.71016 62.3334 6.79802 61.8859 6.98148C61.4384 7.16495 61.0343 7.43995 60.6994 7.78884C60.3494 8.17415 60.0824 8.62723 59.9147 9.12001C59.7471 9.61278 59.6826 10.1347 59.725 10.6535V17.5845C59.7324 17.7687 59.6671 17.9484 59.5431 18.0847C59.4769 18.1547 59.3958 18.2091 59.306 18.244C59.2161 18.2788 59.1196 18.2932 59.0234 18.2861C58.9305 18.2903 58.8378 18.2745 58.7515 18.2398C58.6652 18.205 58.5873 18.1521 58.5233 18.0847C58.4578 18.0192 58.4062 17.9411 58.3716 17.8552C58.337 17.7692 58.3201 17.6772 58.3219 17.5845V10.8159C58.3659 9.75343 58.0296 8.71009 57.3735 7.87329C57.0781 7.50318 56.7008 7.2067 56.2713 7.00719C55.8419 6.80767 55.372 6.71057 54.8986 6.72353C54.4106 6.70515 53.9241 6.78736 53.4693 6.96504C53.0145 7.14272 52.6011 7.41208 52.2548 7.75636C51.9091 8.10151 51.6371 8.51319 51.4551 8.96649C51.2731 9.4198 51.1849 9.90531 51.196 10.3937V17.5391C51.2034 17.7232 51.1381 17.9029 51.0141 18.0392C50.8761 18.1666 50.6952 18.2373 50.5074 18.2373C50.3196 18.2373 50.1387 18.1666 50.0007 18.0392C49.9321 17.9757 49.8781 17.8982 49.8422 17.8119C49.8063 17.7255 49.7895 17.6325 49.7929 17.5391V6.19087C49.7866 6.09423 49.802 5.99741 49.838 5.9075C49.8739 5.81758 49.9295 5.73685 50.0007 5.6712C50.1425 5.55166 50.322 5.4861 50.5074 5.4861C50.6928 5.4861 50.8723 5.55166 51.0141 5.6712C51.1411 5.81355 51.2065 6.00041 51.196 6.19087V7.10028C51.5552 6.64796 51.9958 6.26681 52.4951 5.97651C53.2221 5.53942 54.0569 5.31442 54.9051 5.32692C55.7927 5.30787 56.6659 5.55443 57.4125 6.03497C58.1 6.48545 58.6576 7.10803 59.0299 7.84081C59.4459 7.06658 60.0675 6.42219 60.8262 5.97863C61.585 5.53507 62.4514 5.30955 63.3302 5.32692C64.2178 5.30787 65.091 5.55443 65.8376 6.03497C66.5688 6.51895 67.1548 7.19252 67.533 7.98372C67.9432 8.8702 68.1433 9.83942 68.1176 10.8159Z" fill="#232D5C"/>
<path d="M83.2201 8.53585C82.663 7.56402 81.8584 6.75715 80.8881 6.19735C79.8604 5.63504 78.7078 5.34032 77.5363 5.34032C76.3648 5.34032 75.2121 5.63504 74.1844 6.19735C73.2077 6.75305 72.3979 7.56062 71.8394 8.53585C71.265 9.56082 70.9715 10.7193 70.9885 11.8942C70.973 13.0627 71.2666 14.2145 71.8394 15.233C72.3979 16.2083 73.2077 17.0158 74.1844 17.5715C75.2134 18.1298 76.3656 18.4223 77.5363 18.4223C78.707 18.4223 79.8591 18.1298 80.8881 17.5715C81.8584 17.0117 82.663 16.2049 83.2201 15.233C83.793 14.2145 84.0865 13.0627 84.0711 11.8942C84.0881 10.7193 83.7946 9.56082 83.2201 8.53585ZM81.9989 14.551C81.5575 15.3415 80.91 15.9976 80.1253 16.4494C79.3406 16.9013 78.4481 17.1319 77.5428 17.1168C76.6364 17.128 75.7437 16.8958 74.9576 16.4445C74.1716 15.9932 73.521 15.3393 73.0737 14.551C72.6238 13.7393 72.3995 12.8219 72.4241 11.8942C72.3982 10.9601 72.6225 10.0362 73.0737 9.21791C73.5105 8.43905 74.1474 7.79096 74.9185 7.34062C75.7207 6.88933 76.6256 6.65226 77.546 6.65226C78.4665 6.65226 79.3714 6.88933 80.1736 7.34062C80.9389 7.79195 81.5692 8.44022 81.9989 9.21791C82.4459 10.0308 82.67 10.9473 82.6485 11.8747C82.6709 12.8084 82.4469 13.7315 81.9989 14.551Z" fill="#232D5C"/>
<path d="M99.8104 8.53589C99.2525 7.56247 98.4453 6.75528 97.4719 6.19739C96.4511 5.63906 95.3063 5.34644 94.1428 5.34644C92.9793 5.34644 91.8345 5.63906 90.8137 6.19739C89.8532 6.72985 89.0492 7.5048 88.4817 8.44495C87.9001 9.44581 87.5889 10.5808 87.5787 11.7383V23.0605C87.5769 23.1532 87.5938 23.2452 87.6284 23.3312C87.663 23.4171 87.7146 23.4952 87.7801 23.5607C87.9185 23.69 88.1007 23.7618 88.29 23.7618C88.4793 23.7618 88.6616 23.69 88.8 23.5607C88.9263 23.4254 88.994 23.2456 88.9883 23.0605V15.7592C89.4978 16.585 90.2203 17.2582 91.08 17.708C92.0151 18.1979 93.058 18.4458 94.1135 18.429C95.2784 18.4414 96.4258 18.1456 97.4394 17.5716C98.4128 17.0137 99.22 16.2065 99.7779 15.2331C100.374 14.2214 100.688 13.0685 100.687 11.8942C100.7 10.7166 100.397 9.55716 99.8104 8.53589ZM98.5827 14.551C98.1423 15.3233 97.5088 15.968 96.7443 16.4218C96.157 16.7715 95.5058 17.0006 94.8289 17.0957C94.152 17.1909 93.4629 17.1502 92.8019 16.976C92.1409 16.8018 91.5212 16.4977 90.9791 16.0813C90.4369 15.665 89.9832 15.1447 89.6444 14.551C89.2009 13.7368 88.977 12.8212 88.9948 11.8942C88.9745 10.9608 89.1984 10.0382 89.6444 9.21795C90.0789 8.43954 90.7136 7.79142 91.4827 7.34066C92.0698 6.99052 92.7208 6.76119 93.3977 6.66612C94.0746 6.57104 94.7636 6.61215 95.4244 6.78703C96.0852 6.9619 96.7043 7.26702 97.2456 7.68446C97.7868 8.10191 98.2392 8.62327 98.5762 9.21795C99.0276 10.0361 99.2519 10.9602 99.2258 11.8942C99.2523 12.8213 99.0303 13.7387 98.5827 14.551Z" fill="#232D5C"/>
</svg>
