<svg width="25" height="46" viewBox="0 0 25 46" fill="none" xmlns="http://www.w3.org/2000/svg">
<path d="M11.8033 16.2164L8.53632 29.2914L19.9755 43.9999M6.90282 37.4635L2 43.9976" stroke="#232D5C" stroke-width="3" stroke-linecap="round" stroke-linejoin="round"/>
<path d="M2 26.0222C2 16.8709 8.53632 16.2166 11.8056 16.2166H15.0726C15.6179 18.9406 18.0148 24.7159 23.2448 26.0222M13.1027 11.2813C14.3335 11.2813 15.5138 10.7923 16.3841 9.92205C17.2544 9.05176 17.7433 7.8714 17.7433 6.64063C17.7433 5.40986 17.2544 4.22949 16.3841 3.35921C15.5138 2.48892 14.3335 2 13.1027 2C11.8719 2 10.6916 2.48892 9.82128 3.35921C8.951 4.22949 8.46207 5.40986 8.46207 6.64063C8.46207 7.8714 8.951 9.05176 9.82128 9.92205C10.6916 10.7923 11.8719 11.2813 13.1027 11.2813Z" stroke="#232D5C" stroke-width="3" stroke-linecap="round" stroke-linejoin="round"/>
</svg>
