<svg width="67" height="67" viewBox="0 0 67 67" fill="none" xmlns="http://www.w3.org/2000/svg">
<path d="M36.0125 29.3125C34.3375 28.8937 32.6625 28.0562 31.4062 26.8C30.15 26.3812 29.7313 25.125 29.7313 24.2875C29.7313 23.45 30.15 22.1937 30.9875 21.775C32.2437 20.9375 33.5 20.1 34.7563 20.5188C37.2687 20.5188 39.3625 21.775 40.6187 23.45L44.3875 18.425C43.1313 17.1688 41.875 16.3312 40.6187 15.4937C39.3625 14.6562 37.6875 14.2375 36.0125 14.2375V8.375H30.9875V14.2375C28.8937 14.6562 26.8 15.9125 25.125 17.5875C23.45 19.6812 22.1938 22.1938 22.6125 24.7063C22.6125 27.2188 23.45 29.7313 25.125 31.4062C27.2188 33.5 30.15 34.7563 32.6625 36.0125C33.9188 36.4313 35.5938 37.2688 36.85 38.1063C37.6875 38.9438 38.1063 40.2 38.1063 41.4562C38.1063 42.7125 37.6875 43.9688 36.85 45.225C35.5938 46.4813 33.9188 46.9 32.6625 46.9C30.9875 46.9 28.8938 46.4813 27.6375 45.225C26.3813 44.3875 25.125 43.1312 24.2875 41.875L20.1 46.4813C21.3563 48.1562 22.6125 49.4125 24.2875 50.6688C26.3813 51.925 28.8937 53.1812 31.4062 53.1812V58.625H36.0125V52.3438C38.525 51.925 40.6188 50.6688 42.2938 48.9937C44.3875 46.9 45.6437 43.55 45.6437 40.6187C45.6437 38.1063 44.8062 35.175 42.7125 33.5C40.6187 31.4062 38.525 30.15 36.0125 29.3125ZM33.5 0C15.075 0 0 15.075 0 33.5C0 51.925 15.075 67 33.5 67C51.925 67 67 51.925 67 33.5C67 15.075 51.925 0 33.5 0ZM33.5 62.3937C17.5875 62.3937 4.60625 49.4125 4.60625 33.5C4.60625 17.5875 17.5875 4.60625 33.5 4.60625C49.4125 4.60625 62.3937 17.5875 62.3937 33.5C62.3937 49.4125 49.4125 62.3937 33.5 62.3937Z" fill="#232D5C"/>
</svg>
