<svg width="68" height="68" viewBox="0 0 68 68" fill="none" xmlns="http://www.w3.org/2000/svg">
<path d="M4.47614e-07 25.9959V10.3738C0.00040906 9.60321 0.213822 8.84797 0.616337 8.19264C1.01885 7.53731 1.59458 7.00777 2.27903 6.66332L14.6427 0.437726C15.2147 0.149861 15.8454 0 16.4848 0C17.1243 0 17.755 0.149861 18.327 0.437726L30.6907 6.66332C31.3751 7.00777 31.9508 7.53731 32.3534 8.19264C32.7559 8.84797 32.9693 9.60321 32.9697 10.3738V25.9959C32.9701 26.7672 32.757 27.5233 32.3544 28.1794C31.9519 28.8355 31.3757 29.3657 30.6907 29.7105L18.327 35.9361C17.755 36.2239 17.1243 36.3738 16.4848 36.3738C15.8454 36.3738 15.2147 36.2239 14.6427 35.9361L2.27903 29.7105C1.59395 29.3657 1.01781 28.8355 0.615254 28.1794C0.212695 27.5233 -0.000356431 26.7672 4.47614e-07 25.9959ZM4.28606 11.1541C4.07359 11.661 4.06972 12.2321 4.27529 12.7419C4.48086 13.2517 4.87905 13.6584 5.3823 13.8726L14.4242 17.7158V28.5608C14.4242 29.1112 14.6413 29.639 15.0278 30.0282C15.4142 30.4174 15.9383 30.636 16.4848 30.636C17.0314 30.636 17.5555 30.4174 17.9419 30.0282C18.3284 29.639 18.5455 29.1112 18.5455 28.5608V17.7158L27.5874 13.8726C28.0795 13.6509 28.4657 13.2439 28.6633 12.7389C28.8609 12.2338 28.8541 11.6709 28.6443 11.1708C28.4346 10.6707 28.0386 10.2733 27.5414 10.0638C27.0441 9.85427 26.4851 9.84934 25.9842 10.05L16.4848 14.0884L6.98133 10.05C6.47799 9.83608 5.91087 9.83217 5.40467 10.0392C4.89847 10.2462 4.49463 10.6472 4.28194 11.1541H4.28606ZM2.2337 52.4256V34.3299L6.35491 36.4051V52.4256C6.35491 54.148 7.73964 55.5384 9.44582 55.5384H10.5132C10.9862 53.1928 12.2497 51.084 14.0899 49.5694C15.93 48.0547 18.2336 47.2272 20.6102 47.2272C22.9868 47.2272 25.2903 48.0547 27.1305 49.5694C28.9706 51.084 30.2342 53.1928 30.7072 55.5384H35.2405C35.7865 52.8422 37.3737 50.4748 39.6529 48.957C41.9321 47.4392 44.7166 46.8954 47.3939 47.4451V12.9968C47.3939 12.1713 47.0683 11.3795 46.4886 10.7957C45.909 10.212 45.1228 9.88403 44.303 9.88403H37.0744C36.9875 8.3999 36.5065 6.96651 35.6815 5.73363H44.2989C48.2841 5.73363 51.511 8.98755 51.511 12.9968V18.1848H55.1459C56.2946 18.1849 57.4205 18.5072 58.3974 19.1157C59.3743 19.7241 60.1635 20.5947 60.6766 21.6297L67.3447 35.0562C67.7733 35.9236 68 36.8741 68 37.8411V53.4632C68 55.1143 67.3487 56.6978 66.1894 57.8654C65.0301 59.0329 63.4577 59.6888 61.8182 59.6888H55.4303C54.9574 62.0344 53.6938 64.1432 51.8536 65.6579C50.0135 67.1726 47.7099 68 45.3333 68C42.9567 68 40.6532 67.1726 38.813 65.6579C36.9729 64.1432 35.7093 62.0344 35.2364 59.6888H30.703C30.2301 62.0344 28.9665 64.1432 27.1264 65.6579C25.2862 67.1726 22.9827 68 20.6061 68C18.2294 68 15.9259 67.1726 14.0858 65.6579C12.2456 64.1432 10.982 62.0344 10.5091 59.6888H9.4417C7.52892 59.6888 5.69449 58.9236 4.34196 57.5615C2.98942 56.1994 2.22958 54.3519 2.22958 52.4256H2.2337ZM55.4303 55.5384H61.8182C62.3647 55.5384 62.8888 55.3198 63.2752 54.9306C63.6617 54.5414 63.8788 54.0136 63.8788 53.4632V38.9368H51.5152V49.3128C53.4933 50.807 54.9234 53.0067 55.4303 55.5384ZM62.6095 34.7864L56.9964 23.4849C56.8256 23.1398 56.5629 22.8495 56.2375 22.6465C55.9121 22.4434 55.537 22.3356 55.1542 22.3352H51.5152V34.7864H62.6012H62.6095ZM14.4242 57.6136C14.4242 59.2647 15.0755 60.8482 16.2349 62.0158C17.3942 63.1833 18.9665 63.8392 20.6061 63.8392C22.2456 63.8392 23.818 63.1833 24.9773 62.0158C26.1366 60.8482 26.7879 59.2647 26.7879 57.6136C26.7879 55.9625 26.1366 54.379 24.9773 53.2114C23.818 52.0439 22.2456 51.388 20.6061 51.388C18.9665 51.388 17.3942 52.0439 16.2349 53.2114C15.0755 54.379 14.4242 55.9625 14.4242 57.6136ZM45.3333 63.8392C46.9729 63.8392 48.5452 63.1833 49.7045 62.0158C50.8639 60.8482 51.5152 59.2647 51.5152 57.6136C51.5152 55.9625 50.8639 54.379 49.7045 53.2114C48.5452 52.0439 46.9729 51.388 45.3333 51.388C43.6938 51.388 42.1214 52.0439 40.9621 53.2114C39.8028 54.379 39.1515 55.9625 39.1515 57.6136C39.1515 59.2647 39.8028 60.8482 40.9621 62.0158C42.1214 63.1833 43.6938 63.8392 45.3333 63.8392Z" fill="#232D5C"/>
</svg>
