<svg width="42" height="42" viewBox="0 0 42 42" fill="none" xmlns="http://www.w3.org/2000/svg">
<path d="M2.76467e-07 16.0563V6.40733C0.000252655 5.93139 0.132066 5.46492 0.380679 5.06016C0.629292 4.6554 0.984885 4.32833 1.40764 4.11558L9.044 0.27036C9.39731 0.0925609 9.78685 0 10.1818 0C10.5768 0 10.9663 0.0925609 11.3196 0.27036L18.956 4.11558C19.3787 4.32833 19.7343 4.6554 19.983 5.06016C20.2316 5.46492 20.3634 5.93139 20.3636 6.40733V16.0563C20.3639 16.5326 20.2323 16.9997 19.9836 17.4049C19.735 17.8102 19.3791 18.1377 18.956 18.3506L11.3196 22.1958C10.9663 22.3736 10.5768 22.4662 10.1818 22.4662C9.78685 22.4662 9.39731 22.3736 9.044 22.1958L1.40764 18.3506C0.984499 18.1377 0.628648 17.8102 0.38001 17.4049C0.131371 16.9997 -0.000220148 16.5326 2.76467e-07 16.0563ZM2.64727 6.88927C2.51604 7.20236 2.51365 7.55512 2.64062 7.86999C2.76759 8.18485 3.01353 8.43605 3.32436 8.56835L8.90909 10.9421V17.6405C8.90909 17.9804 9.04318 18.3065 9.28186 18.5468C9.52055 18.7872 9.84427 18.9222 10.1818 18.9222C10.5194 18.9222 10.8431 18.7872 11.0818 18.5468C11.3205 18.3065 11.4545 17.9804 11.4545 17.6405V10.9421L17.0393 8.56835C17.3432 8.43145 17.5818 8.18008 17.7038 7.86812C17.8258 7.55616 17.8216 7.20847 17.6921 6.8996C17.5625 6.59072 17.318 6.34527 17.0108 6.21586C16.7037 6.08646 16.3584 6.08342 16.0491 6.20738L10.1818 8.70165L4.312 6.20738C4.00111 6.07522 3.65083 6.07281 3.33818 6.20068C3.02552 6.32855 2.77609 6.57623 2.64473 6.88927H2.64727ZM1.37964 32.3805V21.2037L3.92509 22.4855V32.3805C3.92509 33.4444 4.78036 34.3031 5.83418 34.3031H6.49345C6.78556 32.8544 7.56602 31.5519 8.70258 30.6164C9.83914 29.6808 11.2619 29.1697 12.7298 29.1697C14.1977 29.1697 15.6205 29.6808 16.7571 30.6164C17.8936 31.5519 18.6741 32.8544 18.9662 34.3031H21.7662C22.1034 32.6378 23.0838 31.1756 24.4915 30.2382C25.8992 29.3007 27.6191 28.9648 29.2727 29.3043V8.02745C29.2727 7.51754 29.0716 7.02852 28.7136 6.66796C28.3555 6.3074 27.87 6.10484 27.3636 6.10484H22.8989C22.8452 5.18817 22.5481 4.30284 22.0385 3.54136H27.3611C29.8225 3.54136 31.8156 5.55113 31.8156 8.02745V11.2318H34.0607C34.7702 11.2318 35.4656 11.4309 36.069 11.8067C36.6724 12.1826 37.1598 12.7202 37.4767 13.3595L41.5953 21.6524C41.86 22.1881 42 22.7752 42 23.3724V33.0214C42 34.0412 41.5977 35.0193 40.8817 35.7404C40.1656 36.4615 39.1945 36.8666 38.1818 36.8666H34.2364C33.9443 38.3153 33.1638 39.6178 32.0272 40.5534C30.8907 41.4889 29.4679 42 28 42C26.5321 42 25.1093 41.4889 23.9728 40.5534C22.8362 39.6178 22.0557 38.3153 21.7636 36.8666H18.9636C18.6715 38.3153 17.8911 39.6178 16.7545 40.5534C15.618 41.4889 14.1952 42 12.7273 42C11.2594 42 9.8366 41.4889 8.70004 40.5534C7.56347 39.6178 6.78302 38.3153 6.49091 36.8666H5.83164C4.65022 36.8666 3.51719 36.394 2.6818 35.5527C1.84641 34.7114 1.37709 33.5703 1.37709 32.3805H1.37964ZM34.2364 34.3031H38.1818C38.5194 34.3031 38.8431 34.1681 39.0818 33.9277C39.3205 33.6873 39.4545 33.3613 39.4545 33.0214V24.0492H31.8182V30.4579C33.04 31.3808 33.9233 32.7394 34.2364 34.3031ZM38.6705 21.4857L35.2036 14.5054C35.0982 14.2923 34.9359 14.1129 34.7349 13.9875C34.5339 13.8621 34.3022 13.7955 34.0658 13.7953H31.8182V21.4857H38.6655H38.6705ZM8.90909 35.5849C8.90909 36.6047 9.31136 37.5827 10.0274 38.3039C10.7435 39.025 11.7146 39.4301 12.7273 39.4301C13.7399 39.4301 14.7111 39.025 15.4271 38.3039C16.1432 37.5827 16.5455 36.6047 16.5455 35.5849C16.5455 34.5651 16.1432 33.587 15.4271 32.8659C14.7111 32.1448 13.7399 31.7397 12.7273 31.7397C11.7146 31.7397 10.7435 32.1448 10.0274 32.8659C9.31136 33.587 8.90909 34.5651 8.90909 35.5849ZM28 39.4301C29.0126 39.4301 29.9838 39.025 30.6999 38.3039C31.4159 37.5827 31.8182 36.6047 31.8182 35.5849C31.8182 34.5651 31.4159 33.587 30.6999 32.8659C29.9838 32.1448 29.0126 31.7397 28 31.7397C26.9874 31.7397 26.0162 32.1448 25.3001 32.8659C24.5841 33.587 24.1818 34.5651 24.1818 35.5849C24.1818 36.6047 24.5841 37.5827 25.3001 38.3039C26.0162 39.025 26.9874 39.4301 28 39.4301Z" fill="#232D5C"/>
</svg>
