<svg width="66" height="66" viewBox="0 0 66 66" fill="none" xmlns="http://www.w3.org/2000/svg">
<path d="M2 14.4H64V26.8L61.8331 28.102C60.1468 29.1138 58.2173 29.6483 56.2508 29.6483C54.2843 29.6483 52.3547 29.1138 50.6684 28.102L48.5 26.8L46.3331 28.102C44.6468 29.1138 42.7173 29.6483 40.7508 29.6483C38.7843 29.6483 36.8547 29.1138 35.1684 28.102L33 26.8L30.8331 28.102C29.1467 29.1141 27.2168 29.6487 25.25 29.6487C23.2832 29.6487 21.3533 29.1141 19.6669 28.102L17.5 26.8L15.3315 28.102C13.6455 29.1135 11.7162 29.6478 9.75 29.6478C7.78379 29.6478 5.85454 29.1135 4.16845 28.102L2 26.8V14.4Z" stroke="#232D5C" stroke-width="4" stroke-linecap="round" stroke-linejoin="round"/>
<path d="M8.2002 30.6579V64H57.8002V29.9M8.2002 14.1241V2H57.8002V14.4" stroke="#232D5C" stroke-width="4" stroke-linecap="round" stroke-linejoin="round"/>
<path d="M25.25 45.4H40.75V64H25.25V45.4Z" stroke="#232D5C" stroke-width="4" stroke-linecap="round" stroke-linejoin="round"/>
</svg>
