<svg width="35" height="34" viewBox="0 0 35 34" fill="none" xmlns="http://www.w3.org/2000/svg">
<path d="M34.8019 9.18743C34.7011 9.04459 34.5673 8.92801 34.4119 8.84749C34.2565 8.76698 34.0839 8.72489 33.9088 8.72478H10.5793L8.81335 2.65022C8.12082 0.258224 6.4752 0 5.80026 0H1.0916C0.48807 0 0 0.48739 0 1.08882C0 1.69024 0.488619 2.1776 1.09156 2.1776H5.79967C5.94862 2.1776 6.40316 2.1776 6.71319 3.24613L12.7882 25.5164C12.9201 25.9863 13.3494 26.3108 13.8391 26.3108H28.6779C29.1386 26.3108 29.5496 26.023 29.7052 25.5904L34.9355 10.1819C35.0558 9.84807 35.0058 9.47636 34.8019 9.18743H34.8019ZM27.9098 24.1338H14.6676L11.1929 10.903H32.3568L27.9098 24.1338ZM25.7448 28.5175C24.2267 28.5175 22.9967 29.7445 22.9967 31.2588C22.9967 32.773 24.2267 34 25.7448 34C27.2629 34 28.4929 32.773 28.4929 31.2588C28.4929 29.7445 27.2629 28.5175 25.7448 28.5175ZM15.8515 28.5175C14.3334 28.5175 13.1034 29.7445 13.1034 31.2588C13.1034 32.773 14.3334 34 15.8515 34C17.3696 34 18.5996 32.773 18.5996 31.2588C18.5996 29.7445 17.3696 28.5175 15.8515 28.5175Z" fill="#232D5C"/>
</svg>
